<mxfile host="app.diagrams.net" modified="2021-12-28T15:04:24.420Z" agent="5.0 (Windows NT 10.0; Win64; x64) AppleWebKit/537.36 (KHTML, like Gecko) Chrome/96.0.4664.110 Safari/537.36" etag="c5iisfYXB4EVkk3Coqd-" version="16.1.0" type="github">
  <diagram id="hgqj2EB7tIdzp_PIlm4s" name="Page-1">
    <mxGraphModel dx="781" dy="1057" grid="1" gridSize="10" guides="1" tooltips="1" connect="1" arrows="1" fold="1" page="1" pageScale="1" pageWidth="827" pageHeight="1169" math="0" shadow="0">
      <root>
        <mxCell id="0" />
        <mxCell id="1" parent="0" />
        <mxCell id="tOBqZjkPRNg2ZKqkKAfn-2" value="姓名" style="rounded=1;whiteSpace=wrap;html=1;" vertex="1" parent="1">
          <mxGeometry x="110" y="180" width="70" height="40" as="geometry" />
        </mxCell>
        <mxCell id="tOBqZjkPRNg2ZKqkKAfn-3" value="住址" style="rounded=1;whiteSpace=wrap;html=1;" vertex="1" parent="1">
          <mxGeometry x="210" y="180" width="70" height="40" as="geometry" />
        </mxCell>
        <mxCell id="tOBqZjkPRNg2ZKqkKAfn-5" value="电话号" style="rounded=1;whiteSpace=wrap;html=1;" vertex="1" parent="1">
          <mxGeometry x="310" y="180" width="70" height="40" as="geometry" />
        </mxCell>
        <mxCell id="tOBqZjkPRNg2ZKqkKAfn-7" value="住院号" style="rounded=1;whiteSpace=wrap;html=1;" vertex="1" parent="1">
          <mxGeometry x="410" y="180" width="70" height="40" as="geometry" />
        </mxCell>
        <mxCell id="tOBqZjkPRNg2ZKqkKAfn-8" value="病人" style="rounded=0;whiteSpace=wrap;html=1;" vertex="1" parent="1">
          <mxGeometry x="210" y="300" width="120" height="60" as="geometry" />
        </mxCell>
        <mxCell id="tOBqZjkPRNg2ZKqkKAfn-9" value="监护" style="rhombus;whiteSpace=wrap;html=1;" vertex="1" parent="1">
          <mxGeometry x="470" y="290" width="120" height="80" as="geometry" />
        </mxCell>
        <mxCell id="tOBqZjkPRNg2ZKqkKAfn-10" value="时间" style="rounded=1;whiteSpace=wrap;html=1;" vertex="1" parent="1">
          <mxGeometry x="290" y="460" width="70" height="40" as="geometry" />
        </mxCell>
        <mxCell id="tOBqZjkPRNg2ZKqkKAfn-11" value="脉搏" style="rounded=1;whiteSpace=wrap;html=1;" vertex="1" parent="1">
          <mxGeometry x="390" y="460" width="70" height="40" as="geometry" />
        </mxCell>
        <mxCell id="tOBqZjkPRNg2ZKqkKAfn-13" value="体温" style="rounded=1;whiteSpace=wrap;html=1;" vertex="1" parent="1">
          <mxGeometry x="490" y="460" width="70" height="40" as="geometry" />
        </mxCell>
        <mxCell id="tOBqZjkPRNg2ZKqkKAfn-14" value="血压" style="rounded=1;whiteSpace=wrap;html=1;" vertex="1" parent="1">
          <mxGeometry x="590" y="460" width="70" height="40" as="geometry" />
        </mxCell>
        <mxCell id="tOBqZjkPRNg2ZKqkKAfn-15" value="心电图" style="rounded=1;whiteSpace=wrap;html=1;" vertex="1" parent="1">
          <mxGeometry x="690" y="460" width="70" height="40" as="geometry" />
        </mxCell>
        <mxCell id="tOBqZjkPRNg2ZKqkKAfn-16" value="护士" style="rounded=0;whiteSpace=wrap;html=1;" vertex="1" parent="1">
          <mxGeometry x="710" y="300" width="120" height="60" as="geometry" />
        </mxCell>
        <mxCell id="tOBqZjkPRNg2ZKqkKAfn-17" value="" style="endArrow=none;html=1;rounded=0;entryX=0;entryY=0.5;entryDx=0;entryDy=0;exitX=1;exitY=0.5;exitDx=0;exitDy=0;" edge="1" parent="1" source="tOBqZjkPRNg2ZKqkKAfn-9" target="tOBqZjkPRNg2ZKqkKAfn-16">
          <mxGeometry width="50" height="50" relative="1" as="geometry">
            <mxPoint x="610" y="380" as="sourcePoint" />
            <mxPoint x="660" y="330" as="targetPoint" />
          </mxGeometry>
        </mxCell>
        <mxCell id="tOBqZjkPRNg2ZKqkKAfn-18" value="" style="endArrow=none;html=1;rounded=0;entryX=1;entryY=0.5;entryDx=0;entryDy=0;exitX=0;exitY=0.5;exitDx=0;exitDy=0;" edge="1" parent="1" source="tOBqZjkPRNg2ZKqkKAfn-9" target="tOBqZjkPRNg2ZKqkKAfn-8">
          <mxGeometry width="50" height="50" relative="1" as="geometry">
            <mxPoint x="380" y="560" as="sourcePoint" />
            <mxPoint x="430" y="510" as="targetPoint" />
          </mxGeometry>
        </mxCell>
        <mxCell id="tOBqZjkPRNg2ZKqkKAfn-19" value="N" style="text;html=1;align=center;verticalAlign=middle;resizable=0;points=[];autosize=1;strokeColor=none;fillColor=none;" vertex="1" parent="1">
          <mxGeometry x="390" y="300" width="20" height="20" as="geometry" />
        </mxCell>
        <mxCell id="tOBqZjkPRNg2ZKqkKAfn-20" value="M" style="text;html=1;align=center;verticalAlign=middle;resizable=0;points=[];autosize=1;strokeColor=none;fillColor=none;" vertex="1" parent="1">
          <mxGeometry x="630" y="300" width="30" height="20" as="geometry" />
        </mxCell>
        <mxCell id="tOBqZjkPRNg2ZKqkKAfn-25" value="姓名" style="rounded=1;whiteSpace=wrap;html=1;" vertex="1" parent="1">
          <mxGeometry x="635" y="170" width="70" height="40" as="geometry" />
        </mxCell>
        <mxCell id="tOBqZjkPRNg2ZKqkKAfn-26" value="科室" style="rounded=1;whiteSpace=wrap;html=1;" vertex="1" parent="1">
          <mxGeometry x="735" y="170" width="70" height="40" as="geometry" />
        </mxCell>
        <mxCell id="tOBqZjkPRNg2ZKqkKAfn-27" value="工作证" style="rounded=1;whiteSpace=wrap;html=1;" vertex="1" parent="1">
          <mxGeometry x="835" y="170" width="70" height="40" as="geometry" />
        </mxCell>
        <mxCell id="tOBqZjkPRNg2ZKqkKAfn-29" value="" style="endArrow=none;html=1;rounded=0;exitX=0.5;exitY=1;exitDx=0;exitDy=0;entryX=0.5;entryY=0;entryDx=0;entryDy=0;" edge="1" parent="1" source="tOBqZjkPRNg2ZKqkKAfn-2" target="tOBqZjkPRNg2ZKqkKAfn-8">
          <mxGeometry width="50" height="50" relative="1" as="geometry">
            <mxPoint x="140" y="270" as="sourcePoint" />
            <mxPoint x="190" y="220" as="targetPoint" />
          </mxGeometry>
        </mxCell>
        <mxCell id="tOBqZjkPRNg2ZKqkKAfn-31" value="" style="endArrow=none;html=1;rounded=0;exitX=0.5;exitY=1;exitDx=0;exitDy=0;entryX=0.5;entryY=0;entryDx=0;entryDy=0;" edge="1" parent="1" source="tOBqZjkPRNg2ZKqkKAfn-3" target="tOBqZjkPRNg2ZKqkKAfn-8">
          <mxGeometry width="50" height="50" relative="1" as="geometry">
            <mxPoint x="300" y="300" as="sourcePoint" />
            <mxPoint x="350" y="250" as="targetPoint" />
          </mxGeometry>
        </mxCell>
        <mxCell id="tOBqZjkPRNg2ZKqkKAfn-32" value="" style="endArrow=none;html=1;rounded=0;entryX=0.5;entryY=1;entryDx=0;entryDy=0;exitX=0.5;exitY=0;exitDx=0;exitDy=0;" edge="1" parent="1" source="tOBqZjkPRNg2ZKqkKAfn-8" target="tOBqZjkPRNg2ZKqkKAfn-5">
          <mxGeometry width="50" height="50" relative="1" as="geometry">
            <mxPoint x="420" y="310" as="sourcePoint" />
            <mxPoint x="470" y="260" as="targetPoint" />
          </mxGeometry>
        </mxCell>
        <mxCell id="tOBqZjkPRNg2ZKqkKAfn-33" value="" style="endArrow=none;html=1;rounded=0;entryX=0.5;entryY=1;entryDx=0;entryDy=0;exitX=0.5;exitY=0;exitDx=0;exitDy=0;" edge="1" parent="1" source="tOBqZjkPRNg2ZKqkKAfn-8" target="tOBqZjkPRNg2ZKqkKAfn-7">
          <mxGeometry width="50" height="50" relative="1" as="geometry">
            <mxPoint x="480" y="560" as="sourcePoint" />
            <mxPoint x="530" y="510" as="targetPoint" />
          </mxGeometry>
        </mxCell>
        <mxCell id="tOBqZjkPRNg2ZKqkKAfn-39" value="" style="endArrow=none;html=1;rounded=0;entryX=0.5;entryY=1;entryDx=0;entryDy=0;exitX=0.5;exitY=0;exitDx=0;exitDy=0;" edge="1" parent="1" source="tOBqZjkPRNg2ZKqkKAfn-10" target="tOBqZjkPRNg2ZKqkKAfn-9">
          <mxGeometry width="50" height="50" relative="1" as="geometry">
            <mxPoint x="480" y="360" as="sourcePoint" />
            <mxPoint x="530" y="310" as="targetPoint" />
          </mxGeometry>
        </mxCell>
        <mxCell id="tOBqZjkPRNg2ZKqkKAfn-40" value="" style="endArrow=none;html=1;rounded=0;entryX=0.5;entryY=1;entryDx=0;entryDy=0;exitX=0.5;exitY=0;exitDx=0;exitDy=0;" edge="1" parent="1" source="tOBqZjkPRNg2ZKqkKAfn-11" target="tOBqZjkPRNg2ZKqkKAfn-9">
          <mxGeometry width="50" height="50" relative="1" as="geometry">
            <mxPoint x="480" y="360" as="sourcePoint" />
            <mxPoint x="530" y="310" as="targetPoint" />
          </mxGeometry>
        </mxCell>
        <mxCell id="tOBqZjkPRNg2ZKqkKAfn-41" value="" style="endArrow=none;html=1;rounded=0;entryX=0.5;entryY=1;entryDx=0;entryDy=0;exitX=0.5;exitY=0;exitDx=0;exitDy=0;" edge="1" parent="1" source="tOBqZjkPRNg2ZKqkKAfn-13" target="tOBqZjkPRNg2ZKqkKAfn-9">
          <mxGeometry width="50" height="50" relative="1" as="geometry">
            <mxPoint x="480" y="360" as="sourcePoint" />
            <mxPoint x="530" y="310" as="targetPoint" />
          </mxGeometry>
        </mxCell>
        <mxCell id="tOBqZjkPRNg2ZKqkKAfn-42" value="" style="endArrow=none;html=1;rounded=0;entryX=0.5;entryY=1;entryDx=0;entryDy=0;exitX=0.5;exitY=0;exitDx=0;exitDy=0;" edge="1" parent="1" source="tOBqZjkPRNg2ZKqkKAfn-14" target="tOBqZjkPRNg2ZKqkKAfn-9">
          <mxGeometry width="50" height="50" relative="1" as="geometry">
            <mxPoint x="630" y="450" as="sourcePoint" />
            <mxPoint x="530" y="310" as="targetPoint" />
          </mxGeometry>
        </mxCell>
        <mxCell id="tOBqZjkPRNg2ZKqkKAfn-44" value="" style="endArrow=none;html=1;rounded=0;entryX=0.5;entryY=1;entryDx=0;entryDy=0;exitX=0.5;exitY=0;exitDx=0;exitDy=0;" edge="1" parent="1" source="tOBqZjkPRNg2ZKqkKAfn-15" target="tOBqZjkPRNg2ZKqkKAfn-9">
          <mxGeometry width="50" height="50" relative="1" as="geometry">
            <mxPoint x="480" y="360" as="sourcePoint" />
            <mxPoint x="530" y="310" as="targetPoint" />
          </mxGeometry>
        </mxCell>
        <mxCell id="tOBqZjkPRNg2ZKqkKAfn-45" value="" style="endArrow=none;html=1;rounded=0;entryX=0.5;entryY=1;entryDx=0;entryDy=0;exitX=0.5;exitY=0;exitDx=0;exitDy=0;" edge="1" parent="1" source="tOBqZjkPRNg2ZKqkKAfn-16" target="tOBqZjkPRNg2ZKqkKAfn-25">
          <mxGeometry width="50" height="50" relative="1" as="geometry">
            <mxPoint x="480" y="360" as="sourcePoint" />
            <mxPoint x="530" y="310" as="targetPoint" />
          </mxGeometry>
        </mxCell>
        <mxCell id="tOBqZjkPRNg2ZKqkKAfn-46" value="" style="endArrow=none;html=1;rounded=0;entryX=0.5;entryY=1;entryDx=0;entryDy=0;" edge="1" parent="1" source="tOBqZjkPRNg2ZKqkKAfn-16" target="tOBqZjkPRNg2ZKqkKAfn-26">
          <mxGeometry width="50" height="50" relative="1" as="geometry">
            <mxPoint x="480" y="360" as="sourcePoint" />
            <mxPoint x="530" y="310" as="targetPoint" />
          </mxGeometry>
        </mxCell>
        <mxCell id="tOBqZjkPRNg2ZKqkKAfn-47" value="" style="endArrow=none;html=1;rounded=0;entryX=0.5;entryY=1;entryDx=0;entryDy=0;exitX=0.5;exitY=0;exitDx=0;exitDy=0;" edge="1" parent="1" source="tOBqZjkPRNg2ZKqkKAfn-16" target="tOBqZjkPRNg2ZKqkKAfn-27">
          <mxGeometry width="50" height="50" relative="1" as="geometry">
            <mxPoint x="480" y="360" as="sourcePoint" />
            <mxPoint x="530" y="310" as="targetPoint" />
          </mxGeometry>
        </mxCell>
      </root>
    </mxGraphModel>
  </diagram>
</mxfile>
